<svg width="164" height="50" viewBox="0 0 164 50" fill="none" xmlns="http://www.w3.org/2000/svg">
<circle cx="25" cy="25" r="25" fill="white"/>
<path d="M25 41.0019C24.8108 41.0019 24.6246 40.9548 24.4582 40.8648L9.60007 32.8642L10.6836 30.8527L25 38.5606L39.3164 30.8527L40.3999 32.8642L25.5418 40.8648C25.3754 40.9548 25.1892 41.0019 25 41.0019ZM25 27.2867C24.8108 27.2867 24.6246 27.2395 24.4582 27.1495L9.60007 19.149C9.41863 19.0511 9.26706 18.9059 9.16142 18.7288C9.05578 18.5517 9 18.3494 9 18.1432C9 17.937 9.05578 17.7347 9.16142 17.5576C9.26706 17.3805 9.41863 17.2354 9.60007 17.1374L24.4582 9.13686C24.6247 9.04703 24.8109 9 25 9C25.1891 9 25.3753 9.04703 25.5418 9.13686L40.3999 17.1374C40.5814 17.2354 40.7329 17.3805 40.8386 17.5576C40.9442 17.7347 41 17.937 41 18.1432C41 18.3494 40.9442 18.5517 40.8386 18.7288C40.7329 18.9059 40.5814 19.0511 40.3999 19.149L25.5418 27.1495C25.3754 27.2395 25.1892 27.2867 25 27.2867ZM12.5534 18.1432L25 24.8454L37.4466 18.1432L25 11.441L12.5534 18.1432Z" fill="#2196F3"/>
<path d="M62.754 29.724C62.0073 29.724 61.312 29.5887 60.668 29.318C60.0333 29.0473 59.4827 28.6787 59.016 28.212C58.5493 27.736 58.1807 27.1807 57.91 26.546C57.6487 25.902 57.518 25.216 57.518 24.488C57.518 23.76 57.6487 23.0787 57.91 22.444C58.1807 21.8 58.5493 21.2447 59.016 20.778C59.4827 20.302 60.0333 19.9287 60.668 19.658C61.312 19.3873 62.0073 19.252 62.754 19.252C63.5007 19.252 64.1913 19.3873 64.826 19.658C65.47 19.9287 66.0253 20.302 66.492 20.778C66.9587 21.2447 67.3227 21.8 67.584 22.444C67.8547 23.0787 67.99 23.76 67.99 24.488C67.99 25.216 67.8547 25.902 67.584 26.546C67.3227 27.1807 66.9587 27.736 66.492 28.212C66.0253 28.6787 65.47 29.0473 64.826 29.318C64.1913 29.5887 63.5007 29.724 62.754 29.724ZM62.754 27.932C63.2207 27.932 63.6547 27.848 64.056 27.68C64.4667 27.512 64.8213 27.2787 65.12 26.98C65.428 26.6813 65.666 26.322 65.834 25.902C66.0113 25.4727 66.1 25.0013 66.1 24.488C66.1 23.9747 66.0113 23.508 65.834 23.088C65.666 22.6587 65.428 22.2947 65.12 21.996C64.8213 21.6973 64.4667 21.464 64.056 21.296C63.6547 21.128 63.2207 21.044 62.754 21.044C62.2873 21.044 61.8487 21.128 61.438 21.296C61.0367 21.464 60.682 21.6973 60.374 21.996C60.0753 22.2947 59.8373 22.6587 59.66 23.088C59.492 23.508 59.408 23.9747 59.408 24.488C59.408 25.0013 59.492 25.4727 59.66 25.902C59.8373 26.322 60.0753 26.6813 60.374 26.98C60.682 27.2787 61.0367 27.512 61.438 27.68C61.8487 27.848 62.2873 27.932 62.754 27.932ZM71.2239 29.5V21.268H68.4239V19.476H75.9139V21.268H73.1139V29.5H71.2239ZM77.258 19.476H79.148V29.5H77.258V19.476ZM81.1682 19.476H87.5242V21.268H83.0582V23.704H87.0762V25.496H83.0582V29.5H81.1682V19.476ZM92.051 29.5V19.476H95.579C96.055 19.476 96.4983 19.5553 96.909 19.714C97.329 19.8633 97.693 20.078 98.001 20.358C98.309 20.638 98.5516 20.974 98.729 21.366C98.9063 21.7487 98.995 22.1733 98.995 22.64C98.995 23.116 98.9063 23.55 98.729 23.942C98.5516 24.3247 98.309 24.656 98.001 24.936C97.693 25.216 97.329 25.4353 96.909 25.594C96.4983 25.7433 96.055 25.818 95.579 25.818H93.941V29.5H92.051ZM95.607 24.026C96.1016 24.026 96.475 23.886 96.727 23.606C96.979 23.326 97.105 23.004 97.105 22.64C97.105 22.4627 97.0723 22.29 97.007 22.122C96.951 21.954 96.8576 21.8093 96.727 21.688C96.6056 21.5573 96.4516 21.4547 96.265 21.38C96.0783 21.3053 95.859 21.268 95.607 21.268H93.941V24.026H95.607ZM100.336 19.476H102.226V27.708H106.468V29.5H100.336V19.476ZM110.741 19.476H112.897L116.663 29.5H114.577L113.751 27.106H109.887L109.061 29.5H106.975L110.741 19.476ZM113.135 25.37L112.239 22.864L111.875 21.646H111.763L111.399 22.864L110.503 25.37H113.135ZM119.048 29.5V21.268H116.248V19.476H123.738V21.268H120.938V29.5H119.048ZM125.082 19.476H131.438V21.268H126.972V23.704H130.99V25.496H126.972V29.5H125.082V19.476ZM137.498 29.724C136.751 29.724 136.056 29.5887 135.412 29.318C134.777 29.0473 134.227 28.6787 133.76 28.212C133.293 27.736 132.925 27.1807 132.654 26.546C132.393 25.902 132.262 25.216 132.262 24.488C132.262 23.76 132.393 23.0787 132.654 22.444C132.925 21.8 133.293 21.2447 133.76 20.778C134.227 20.302 134.777 19.9287 135.412 19.658C136.056 19.3873 136.751 19.252 137.498 19.252C138.245 19.252 138.935 19.3873 139.57 19.658C140.214 19.9287 140.769 20.302 141.236 20.778C141.703 21.2447 142.067 21.8 142.328 22.444C142.599 23.0787 142.734 23.76 142.734 24.488C142.734 25.216 142.599 25.902 142.328 26.546C142.067 27.1807 141.703 27.736 141.236 28.212C140.769 28.6787 140.214 29.0473 139.57 29.318C138.935 29.5887 138.245 29.724 137.498 29.724ZM137.498 27.932C137.965 27.932 138.399 27.848 138.8 27.68C139.211 27.512 139.565 27.2787 139.864 26.98C140.172 26.6813 140.41 26.322 140.578 25.902C140.755 25.4727 140.844 25.0013 140.844 24.488C140.844 23.9747 140.755 23.508 140.578 23.088C140.41 22.6587 140.172 22.2947 139.864 21.996C139.565 21.6973 139.211 21.464 138.8 21.296C138.399 21.128 137.965 21.044 137.498 21.044C137.031 21.044 136.593 21.128 136.182 21.296C135.781 21.464 135.426 21.6973 135.118 21.996C134.819 22.2947 134.581 22.6587 134.404 23.088C134.236 23.508 134.152 23.9747 134.152 24.488C134.152 25.0013 134.236 25.4727 134.404 25.902C134.581 26.322 134.819 26.6813 135.118 26.98C135.426 27.2787 135.781 27.512 136.182 27.68C136.593 27.848 137.031 27.932 137.498 27.932ZM144.264 19.476H147.918C148.422 19.476 148.879 19.5553 149.29 19.714C149.701 19.8727 150.051 20.092 150.34 20.372C150.639 20.652 150.867 20.988 151.026 21.38C151.185 21.7627 151.264 22.1827 151.264 22.64C151.264 22.976 151.208 23.2933 151.096 23.592C150.984 23.8813 150.83 24.1473 150.634 24.39C150.438 24.6233 150.209 24.8333 149.948 25.02C149.687 25.1973 149.411 25.3373 149.122 25.44L149.108 25.538L151.796 29.388V29.5H149.626L147.036 25.734H146.154V29.5H144.264V19.476ZM147.904 23.998C148.333 23.998 148.683 23.8673 148.954 23.606C149.234 23.3447 149.374 23.0133 149.374 22.612C149.374 22.4347 149.341 22.262 149.276 22.094C149.22 21.926 149.131 21.7767 149.01 21.646C148.889 21.5153 148.735 21.4127 148.548 21.338C148.371 21.254 148.165 21.212 147.932 21.212H146.154V23.998H147.904ZM152.946 19.476H154.808L157.874 24.782H157.986L161.052 19.476H162.928V29.5H161.052V24.558L161.164 22.878H161.052L158.504 27.372H157.37L154.808 22.878H154.696L154.808 24.558V29.5H152.946V19.476Z" fill="white"/>
</svg>
