<svg width="60" height="60" viewBox="0 0 60 60" fill="none" xmlns="http://www.w3.org/2000/svg">
<circle cx="30" cy="30" r="29.5" fill="white" stroke="#0000FF"/>
<path d="M20.4704 30.5871L19.3544 29.416C18.8819 28.9201 18.8819 28.1182 19.3544 27.6276L29.122 17.3723C29.5945 16.8764 30.3586 16.8764 30.8261 17.3723L40.5987 27.6276C41.0713 28.1235 41.0713 28.9254 40.5987 29.416L39.4827 30.5871C39.0051 31.0883 38.226 31.0777 37.7584 30.566L31.9874 24.2092V39.3706C31.9874 40.0723 31.4495 40.6367 30.7809 40.6367H29.1722C28.5036 40.6367 27.9657 40.0723 27.9657 39.3706V24.2092L22.1947 30.566C21.7272 31.083 20.948 31.0935 20.4704 30.5871Z" fill="#0000FF"/>
</svg>
