<svg width="24" height="24" viewBox="0 0 24 24" fill="none" xmlns="http://www.w3.org/2000/svg">
<path d="M1.66602 5.6665H22.3327V18.3332H1.66602V5.6665Z" fill="white"/>
<path d="M1.66602 5.6665H22.3327V7.33317H1.66602V5.6665ZM1.66602 8.6665H22.3327V9.99984H1.66602V8.6665ZM1.66602 11.3332H22.3327V12.6665H1.66602V11.3332Z" fill="#D22F27"/>
<path d="M1.66602 5.6665H12.3327V12.6665H1.66602V5.6665Z" fill="#1E50A0"/>
<path d="M1.66602 14H22.3327V15.3333H1.66602V14Z" fill="#D22F27"/>
<path d="M3.16732 7.91667C3.48948 7.91667 3.75065 7.6555 3.75065 7.33333C3.75065 7.01117 3.48948 6.75 3.16732 6.75C2.84515 6.75 2.58398 7.01117 2.58398 7.33333C2.58398 7.6555 2.84515 7.91667 3.16732 7.91667Z" fill="white"/>
<path d="M5.83333 7.91667C6.1555 7.91667 6.41667 7.6555 6.41667 7.33333C6.41667 7.01117 6.1555 6.75 5.83333 6.75C5.51117 6.75 5.25 7.01117 5.25 7.33333C5.25 7.6555 5.51117 7.91667 5.83333 7.91667Z" fill="white"/>
<path d="M8.49935 7.91667C8.82151 7.91667 9.08268 7.6555 9.08268 7.33333C9.08268 7.01117 8.82151 6.75 8.49935 6.75C8.17718 6.75 7.91602 7.01117 7.91602 7.33333C7.91602 7.6555 8.17718 7.91667 8.49935 7.91667Z" fill="white"/>
<path d="M11.1673 7.91667C11.4895 7.91667 11.7507 7.6555 11.7507 7.33333C11.7507 7.01117 11.4895 6.75 11.1673 6.75C10.8452 6.75 10.584 7.01117 10.584 7.33333C10.584 7.6555 10.8452 7.91667 11.1673 7.91667Z" fill="white"/>
<path d="M9.83333 9.25C10.1555 9.25 10.4167 8.98883 10.4167 8.66667C10.4167 8.3445 10.1555 8.08333 9.83333 8.08333C9.51117 8.08333 9.25 8.3445 9.25 8.66667C9.25 8.98883 9.51117 9.25 9.83333 9.25Z" fill="white"/>
<path d="M7.16732 9.25016C7.48948 9.25016 7.75065 8.989 7.75065 8.66683C7.75065 8.34466 7.48948 8.0835 7.16732 8.0835C6.84515 8.0835 6.58398 8.34466 6.58398 8.66683C6.58398 8.989 6.84515 9.25016 7.16732 9.25016Z" fill="white"/>
<path d="M4.49935 9.25016C4.82151 9.25016 5.08268 8.989 5.08268 8.66683C5.08268 8.34466 4.82151 8.0835 4.49935 8.0835C4.17718 8.0835 3.91602 8.34466 3.91602 8.66683C3.91602 8.989 4.17718 9.25016 4.49935 9.25016Z" fill="white"/>
<path d="M3.16732 10.5832C3.48948 10.5832 3.75065 10.322 3.75065 9.99984C3.75065 9.67767 3.48948 9.4165 3.16732 9.4165C2.84515 9.4165 2.58398 9.67767 2.58398 9.99984C2.58398 10.322 2.84515 10.5832 3.16732 10.5832Z" fill="white"/>
<path d="M5.83333 10.5833C6.1555 10.5833 6.41667 10.3222 6.41667 10C6.41667 9.67783 6.1555 9.41667 5.83333 9.41667C5.51117 9.41667 5.25 9.67783 5.25 10C5.25 10.3222 5.51117 10.5833 5.83333 10.5833Z" fill="white"/>
<path d="M8.49935 10.5832C8.82151 10.5832 9.08268 10.322 9.08268 9.99984C9.08268 9.67767 8.82151 9.4165 8.49935 9.4165C8.17718 9.4165 7.91602 9.67767 7.91602 9.99984C7.91602 10.322 8.17718 10.5832 8.49935 10.5832Z" fill="white"/>
<path d="M11.1673 10.5832C11.4895 10.5832 11.7507 10.322 11.7507 9.99984C11.7507 9.67767 11.4895 9.4165 11.1673 9.4165C10.8452 9.4165 10.584 9.67767 10.584 9.99984C10.584 10.322 10.8452 10.5832 11.1673 10.5832Z" fill="white"/>
<path d="M9.83333 11.9167C10.1555 11.9167 10.4167 11.6555 10.4167 11.3333C10.4167 11.0112 10.1555 10.75 9.83333 10.75C9.51117 10.75 9.25 11.0112 9.25 11.3333C9.25 11.6555 9.51117 11.9167 9.83333 11.9167Z" fill="white"/>
<path d="M7.16732 11.9167C7.48948 11.9167 7.75065 11.6555 7.75065 11.3333C7.75065 11.0112 7.48948 10.75 7.16732 10.75C6.84515 10.75 6.58398 11.0112 6.58398 11.3333C6.58398 11.6555 6.84515 11.9167 7.16732 11.9167Z" fill="white"/>
<path d="M4.49935 11.9167C4.82151 11.9167 5.08268 11.6555 5.08268 11.3333C5.08268 11.0112 4.82151 10.75 4.49935 10.75C4.17718 10.75 3.91602 11.0112 3.91602 11.3333C3.91602 11.6555 4.17718 11.9167 4.49935 11.9167Z" fill="white"/>
<path d="M1.66602 16.6665H22.3327V18.3332H1.66602V16.6665Z" fill="#D22F27"/>
<path d="M1.66602 5.1665C1.38987 5.1665 1.16602 5.39036 1.16602 5.6665V18.3332C1.16602 18.6093 1.38987 18.8332 1.66602 18.8332H22.3327C22.6088 18.8332 22.8327 18.6093 22.8327 18.3332V5.6665C22.8327 5.39036 22.6088 5.1665 22.3327 5.1665H1.66602Z" stroke="white" stroke-linecap="round" stroke-linejoin="round"/>
</svg>
